<?xml version="1.0" encoding="iso-8859-1"?>
<!-- Generator: Adobe Illustrator 19.0.0, SVG Export Plug-In . SVG Version: 6.00 Build 0)  -->
<svg version="1.1" id="Capa_1" xmlns="http://www.w3.org/2000/svg" xmlns:xlink="http://www.w3.org/1999/xlink" x="0px" y="0px"
	 viewBox="0 0 512.011 512.011" style="enable-background:new 0 0 512.011 512.011;" xml:space="preserve">
<g transform="translate(0 -1)">
	<g transform="translate(1 2)">
		<polygon style="fill:#AD1457;" points="255.005,391.544 195.272,391.544 195.272,464.615 255.005,464.615 314.739,464.615 
			314.739,391.544 		"/>
		<polygon style="fill:#E91E63;" points="242.205,391.544 195.272,391.544 195.272,464.615 242.205,464.615 289.139,464.615 
			289.139,391.544 		"/>
		<g>
			<path style="fill:#CFD8DC;" d="M53.619,423.975c-3.673-0.002-6.934-2.353-8.096-5.838c-4.795-12.221-1.891-26.121,7.396-35.4
				c4.28-4.221,9.419-7.471,15.067-9.529c2.889-0.973,6.078-0.33,8.365,1.686c2.287,2.016,3.325,5.099,2.723,8.088
				c-0.602,2.989-2.753,5.429-5.643,6.402c-4.844,1.26-8.908,4.548-11.153,9.021c-2.244,4.473-2.45,9.697-0.564,14.333
				c0.865,2.603,0.427,5.463-1.176,7.688C58.936,422.651,56.361,423.971,53.619,423.975z"/>
			<path style="fill:#CFD8DC;" d="M115.059,423.975c-2.743-0.004-5.317-1.324-6.92-3.549c-1.603-2.225-2.041-5.085-1.176-7.688
				c1.797-4.633,1.555-9.809-0.668-14.253s-6.218-7.743-11.003-9.084c-2.892-0.965-5.05-3.399-5.661-6.386
				c-0.611-2.987,0.418-6.073,2.7-8.096c2.282-2.023,5.469-2.674,8.361-1.71c5.648,2.058,10.786,5.308,15.066,9.529
				c9.287,9.279,12.191,23.179,7.396,35.4C121.992,421.622,118.732,423.973,115.059,423.975z"/>
		</g>
		<path id="SVGCleanerId_0" style="fill:#CFD8DC;" d="M456.392,423.975c-2.743-0.004-5.317-1.324-6.92-3.549
			c-1.603-2.225-2.041-5.085-1.176-7.688c1.797-4.633,1.555-9.809-0.668-14.253s-6.218-7.743-11.003-9.084
			c-4.471-1.491-6.887-6.325-5.396-10.796c1.491-4.471,6.325-6.887,10.796-5.396c5.648,2.058,10.786,5.308,15.066,9.529
			c9.287,9.279,12.191,23.179,7.396,35.4C463.326,421.622,460.065,423.973,456.392,423.975z"/>
		<path style="fill:#CFD8DC;" d="M394.952,423.975c-3.673-0.002-6.934-2.353-8.096-5.838c-4.795-12.221-1.891-26.121,7.396-35.4
			c4.28-4.221,9.419-7.471,15.067-9.529c4.467-1.504,9.307,0.898,10.81,5.365c1.504,4.467-0.898,9.307-5.365,10.81
			c-4.844,1.26-8.908,4.548-11.153,9.021c-2.244,4.473-2.45,9.697-0.564,14.333c0.865,2.603,0.428,5.463-1.176,7.688
			C400.269,422.651,397.695,423.971,394.952,423.975z"/>
		<path style="fill:#E91E63;" d="M425.672,374.477c-4.713,0-8.533-3.821-8.533-8.533v-51.2c-0.015-14.132-11.468-25.585-25.6-25.6
			H118.472c-14.132,0.015-25.585,11.468-25.6,25.6v51.2c0,4.713-3.821,8.533-8.533,8.533s-8.533-3.821-8.533-8.533v-51.2
			c0.028-23.553,19.114-42.639,42.667-42.667h273.067c23.553,0.028,42.639,19.114,42.667,42.667v51.2
			C434.205,370.657,430.385,374.477,425.672,374.477z"/>
		<path style="fill:#607D8B;" d="M331.805,220.877v170.667c-0.028,9.414-7.652,17.039-17.067,17.067H195.272
			c-9.414-0.028-17.039-7.653-17.067-17.067V220.877H331.805z"/>
		<g>
			<path style="fill:#9E9E9E;" d="M306.205,220.877v170.667c-0.028,9.414-7.652,17.039-17.067,17.067h-93.867
				c-9.414-0.028-17.039-7.653-17.067-17.067V220.877H306.205z"/>
			<rect x="178.205" y="340.344" style="fill:#9E9E9E;" width="153.6" height="34.133"/>
		</g>
		<rect x="178.205" y="340.344" style="fill:#CFD8DC;" width="128" height="34.133"/>
		<rect x="289.139" y="459.811" style="fill:#607D8B;" width="25.6" height="42.667"/>
		<path style="fill:#9E9E9E;" d="M289.139,459.811v42.667c-18.833-0.044-34.09-15.3-34.133-34.134
			c-0.012,8.297-3.045,16.305-8.533,22.528c-1.295,1.466-2.724,2.808-4.267,4.011c-6.009,4.94-13.555,7.626-21.333,7.595l-25.6,0
			v-42.667H289.139z"/>
		<circle style="fill:#E91E63;" cx="284.872" cy="293.411" r="12.8"/>
		<g>
			<circle style="fill:#9E9E9E;" cx="84.339" cy="374.477" r="17.067"/>
			<circle style="fill:#9E9E9E;" cx="425.672" cy="374.477" r="17.067"/>
		</g>
		<path style="fill:#E91E63;" d="M391.539,135.544c23.564,0,42.667,19.103,42.667,42.667s-19.103,42.667-42.667,42.667H118.472
			c-23.564,0-42.667-19.103-42.667-42.667s19.103-42.667,42.667-42.667H391.539z"/>
		<path style="fill:#9E9E9E;" d="M391.539,144.077v68.267c0.002,9.053-3.593,17.737-9.995,24.139
			c-6.402,6.402-15.085,9.997-24.139,9.995h-204.8c-9.053,0.002-17.737-3.593-24.139-9.995c-6.402-6.402-9.997-15.085-9.995-24.139
			v-64.427C117.811,76.412,171.387,16.014,242.461,8.141c1.963-0.171,3.925-0.341,5.973-0.427
			c37.303-1.786,73.71,11.781,100.746,37.544C376.217,71.021,391.524,106.732,391.539,144.077z"/>
		<path style="fill:#CFD8DC;" d="M365.939,144.077v68.267c0.002,9.053-3.593,17.737-9.995,24.139
			c-6.402,6.402-15.085,9.997-24.139,9.995h-179.2c-9.053,0.002-17.737-3.593-24.139-9.995c-6.402-6.402-9.997-15.085-9.995-24.139
			v-64.427C117.811,76.412,171.387,16.014,242.461,8.141C312.476,14.912,365.909,73.735,365.939,144.077z"/>
		<g>
			<path id="SVGCleanerId_0_1_" style="fill:#CFD8DC;" d="M456.392,423.975c-2.743-0.004-5.317-1.324-6.92-3.549
				c-1.603-2.225-2.041-5.085-1.176-7.688c1.797-4.633,1.555-9.809-0.668-14.253s-6.218-7.743-11.003-9.084
				c-4.471-1.491-6.887-6.325-5.396-10.796c1.491-4.471,6.325-6.887,10.796-5.396c5.648,2.058,10.786,5.308,15.066,9.529
				c9.287,9.279,12.191,23.179,7.396,35.4C463.326,421.622,460.065,423.973,456.392,423.975z"/>
		</g>
		<circle style="fill:#9E9E9E;" cx="425.672" cy="374.477" r="17.067"/>
		<circle style="fill:#0377BC;" cx="255.005" cy="127.011" r="93.867"/>
		<ellipse style="fill:#2296F3;" cx="242.205" cy="127.011" rx="81.067" ry="93.867"/>
		<g>
			<path style="fill:#E91E63;" d="M195.272,101.411h25.6c4.713,0,8.533,3.821,8.533,8.533l0,0c0,4.713-3.821,8.533-8.533,8.533
				h-25.6c-4.713,0-8.533-3.821-8.533-8.533l0,0C186.739,105.231,190.559,101.411,195.272,101.411z"/>
			<path style="fill:#E91E63;" d="M289.139,101.411h25.6c4.713,0,8.533,3.821,8.533,8.533l0,0c0,4.713-3.821,8.533-8.533,8.533
				h-25.6c-4.713,0-8.533-3.821-8.533-8.533l0,0C280.605,105.231,284.426,101.411,289.139,101.411z"/>
			<path style="fill:#E91E63;" d="M297.672,144.077c0,23.564-19.103,42.667-42.667,42.667s-42.667-19.103-42.667-42.667H297.672z"/>
		</g>
	</g>
	<g>
		<path d="M285.872,316.744c11.782,0,21.333-9.551,21.333-21.333s-9.551-21.333-21.333-21.333c-11.782,0-21.333,9.551-21.333,21.333
			C264.552,307.187,274.096,316.73,285.872,316.744z M285.872,291.144c2.356,0,4.267,1.91,4.267,4.267s-1.91,4.267-4.267,4.267
			s-4.267-1.91-4.267-4.267C281.607,293.055,283.516,291.145,285.872,291.144z"/>
		<path d="M43.109,421.844c1.491,4.471,6.325,6.887,10.796,5.396c4.471-1.491,6.887-6.325,5.396-10.796
			c-3.659-8.246-0.045-17.903,8.129-21.72c9.93,9.808,25.903,9.805,35.828-0.009c8.071,3.916,11.644,13.48,8.118,21.729
			c-0.965,2.892-0.313,6.08,1.71,8.361c2.023,2.282,5.109,3.311,8.096,2.7c2.987-0.611,5.422-2.769,6.386-5.661
			c4.795-12.221,1.891-26.122-7.396-35.4c-2.823-2.79-6.032-5.16-9.529-7.038c0.156-0.97,0.255-1.948,0.296-2.929
			c-0.033-10.813-6.868-20.435-17.067-24.028v-35.706c0.015-14.132,11.468-25.585,25.6-25.6h51.2v102.4
			c0.033,10.813,6.868,20.435,17.067,24.027v86.906c0,4.713,3.821,8.533,8.533,8.533h25.6c13.482-0.037,26.148-6.468,34.133-17.331
			c7.986,10.863,20.651,17.294,34.133,17.331h25.6c4.713,0,8.533-3.82,8.533-8.533v-86.906
			c10.199-3.592,17.033-13.215,17.067-24.028v-102.4h51.2c14.132,0.015,25.585,11.468,25.6,25.6v35.706
			c-10.199,3.592-17.033,13.215-17.067,24.028c0.041,0.981,0.14,1.959,0.296,2.929c-3.497,1.878-6.706,4.248-9.529,7.037
			c-9.287,9.279-12.191,23.179-7.396,35.4c1.491,4.471,6.325,6.887,10.796,5.396c4.471-1.491,6.887-6.325,5.396-10.796
			c-3.659-8.246-0.045-17.903,8.129-21.72c9.93,9.808,25.903,9.805,35.828-0.009c8.071,3.916,11.644,13.48,8.118,21.729
			c-0.965,2.892-0.313,6.08,1.71,8.361c2.023,2.282,5.109,3.311,8.096,2.7c2.987-0.611,5.422-2.769,6.386-5.661
			c4.795-12.221,1.891-26.122-7.396-35.4c-2.823-2.79-6.032-5.16-9.529-7.038c0.156-0.97,0.255-1.948,0.296-2.929
			c-0.033-10.813-6.868-20.435-17.067-24.028v-35.706c-0.028-23.553-19.114-42.639-42.667-42.667h-51.2v-17.067h17.067
			c17.053-0.023,32.458-10.187,39.189-25.856c25.707-2.534,45.493-23.834,46.128-49.658c0.635-25.824-18.08-48.071-43.632-51.865
			C391.464,53.68,325.355-2.528,249.005,1.173c-70.604,4.074-128.139,58.16-136.565,128.378
			c-25.688,3.548-44.661,25.752-44.156,51.68s20.325,47.378,46.132,49.924c6.731,15.669,22.136,25.833,39.189,25.856h17.067v17.067
			h-51.2c-23.553,0.028-42.639,19.114-42.667,42.667v35.706c-10.199,3.592-17.033,13.215-17.067,24.028
			c0.041,0.981,0.14,1.959,0.296,2.929c-3.497,1.878-6.706,4.248-9.529,7.038C41.219,395.723,38.314,409.623,43.109,421.844z
			 M426.672,385.011c-4.713,0-8.533-3.821-8.533-8.533c0-4.713,3.82-8.533,8.533-8.533s8.533,3.821,8.533,8.533
			C435.199,381.188,431.382,385.004,426.672,385.011z M324.272,367.944H187.739v-17.067h136.533V367.944z M307.205,419.144v34.133
			h-42.667v-34.133H307.205z M247.472,453.277h-42.667v-34.133h42.667V453.277z M221.872,495.944h-17.067v-25.6h42.667
			C247.456,484.476,236.004,495.928,221.872,495.944z M290.139,495.944c-14.132-0.015-25.585-11.468-25.6-25.6h42.667v25.6H290.139z
			 M315.739,402.077H196.272c-4.71-0.006-8.527-3.823-8.533-8.533v-8.533h136.533v8.533
			C324.266,398.254,320.449,402.071,315.739,402.077z M426.672,180.211c-0.047,15.521-10.569,29.052-25.6,32.922v-65.843
			C416.103,151.158,426.625,164.69,426.672,180.211z M85.339,180.211c0.046-15.572,10.633-29.135,25.727-32.961
			c-0.016,0.901-0.127,1.777-0.127,2.682v63.201C95.908,209.263,85.386,195.732,85.339,180.211z M128.005,214.344v-64.412
			c-1.148-69.408,52.514-127.435,121.8-131.708c2.092-0.1,4.176-0.15,6.254-0.15c70.672,0.032,127.946,57.332,127.946,128.004
			v68.267c-0.015,14.132-11.468,25.585-25.6,25.6h-204.8C139.473,239.928,128.021,228.476,128.005,214.344z M324.272,257.011v76.8
			H187.739v-76.8H324.272z M85.339,367.944c4.713,0,8.533,3.821,8.533,8.533c0,4.713-3.821,8.533-8.533,8.533
			s-8.533-3.821-8.533-8.533C76.811,371.767,80.628,367.95,85.339,367.944z"/>
		<path d="M256.005,231.411c56.554,0,102.4-45.846,102.4-102.4s-45.846-102.4-102.4-102.4s-102.4,45.846-102.4,102.4
			C153.67,185.538,199.478,231.346,256.005,231.411z M256.005,43.677c47.128,0,85.333,38.205,85.333,85.333
			s-38.205,85.333-85.333,85.333s-85.333-38.205-85.333-85.333C170.724,81.904,208.899,43.73,256.005,43.677z"/>
		<path d="M221.872,120.477c4.713,0,8.533-3.821,8.533-8.533c0-4.713-3.821-8.533-8.533-8.533h-25.6
			c-4.713,0-8.533,3.821-8.533,8.533c0,4.713,3.821,8.533,8.533,8.533H221.872z"/>
		<path d="M290.139,120.477h25.6c4.713,0,8.533-3.821,8.533-8.533c0-4.713-3.821-8.533-8.533-8.533h-25.6
			c-4.713,0-8.533,3.821-8.533,8.533C281.605,116.657,285.426,120.477,290.139,120.477z"/>
		<path d="M204.805,146.077c0,28.277,22.923,51.2,51.2,51.2c28.277,0,51.2-22.923,51.2-51.2c0-4.713-3.82-8.533-8.533-8.533h-85.333
			C208.626,137.544,204.805,141.364,204.805,146.077z M289.059,154.611c-3.893,15.071-17.488,25.6-33.054,25.6
			s-29.161-10.529-33.054-25.6H289.059z"/>
	</g>
</g>
<g>
</g>
<g>
</g>
<g>
</g>
<g>
</g>
<g>
</g>
<g>
</g>
<g>
</g>
<g>
</g>
<g>
</g>
<g>
</g>
<g>
</g>
<g>
</g>
<g>
</g>
<g>
</g>
<g>
</g>
</svg>
