<?xml version="1.0" encoding="iso-8859-1"?>
<!-- Generator: Adobe Illustrator 19.0.0, SVG Export Plug-In . SVG Version: 6.00 Build 0)  -->
<svg version="1.1" id="Capa_1" xmlns="http://www.w3.org/2000/svg" xmlns:xlink="http://www.w3.org/1999/xlink" x="0px" y="0px"
	 viewBox="0 0 512.011 512.011" style="enable-background:new 0 0 512.011 512.011;" xml:space="preserve">
<g transform="translate(0 -1)">
	<g transform="translate(1 2)">
		<polygon style="fill:#AD1457;" points="255.006,391.545 195.272,391.545 195.272,464.616 255.006,464.616 314.739,464.616 
			314.739,391.545 		"/>
		<polygon style="fill:#E91E63;" points="242.206,391.545 195.272,391.545 195.272,464.616 242.206,464.616 289.139,464.616 
			289.139,391.545 		"/>
		<g>
			<path style="fill:#CFD8DC;" d="M53.619,423.975c-3.673-0.002-6.934-2.353-8.096-5.837c-4.795-12.221-1.891-26.121,7.396-35.4
				c4.28-4.221,9.419-7.471,15.067-9.529c2.889-0.973,6.078-0.33,8.365,1.686c2.287,2.016,3.325,5.099,2.723,8.088
				c-0.602,2.989-2.753,5.429-5.643,6.402c-4.844,1.26-8.908,4.548-11.153,9.021c-2.244,4.473-2.45,9.697-0.564,14.333
				c0.865,2.603,0.427,5.463-1.176,7.688C58.936,422.652,56.362,423.972,53.619,423.975z"/>
			<path style="fill:#CFD8DC;" d="M115.059,423.975c-2.743-0.004-5.317-1.324-6.92-3.549c-1.603-2.225-2.041-5.085-1.176-7.688
				c1.797-4.633,1.555-9.809-0.668-14.253c-2.223-4.444-6.218-7.743-11.003-9.084c-2.892-0.965-5.05-3.399-5.661-6.386
				c-0.611-2.987,0.418-6.073,2.7-8.096c2.282-2.023,5.469-2.674,8.361-1.71c5.648,2.058,10.786,5.308,15.066,9.529
				c9.287,9.279,12.191,23.179,7.396,35.4C121.993,421.623,118.732,423.974,115.059,423.975z"/>
			<path style="fill:#CFD8DC;" d="M456.392,423.975c-2.743-0.004-5.317-1.324-6.92-3.549c-1.603-2.225-2.041-5.085-1.176-7.688
				c1.797-4.633,1.555-9.809-0.668-14.253s-6.218-7.743-11.003-9.084c-4.471-1.491-6.887-6.325-5.396-10.796
				c1.491-4.471,6.325-6.887,10.796-5.396c5.648,2.058,10.786,5.308,15.066,9.529c9.287,9.279,12.191,23.179,7.396,35.4
				C463.326,421.623,460.066,423.974,456.392,423.975z"/>
			<path style="fill:#CFD8DC;" d="M394.952,423.975c-3.673-0.002-6.934-2.353-8.096-5.837c-4.795-12.221-1.891-26.121,7.396-35.4
				c4.28-4.221,9.419-7.471,15.067-9.529c4.467-1.504,9.307,0.898,10.81,5.365c1.504,4.467-0.898,9.307-5.365,10.81
				c-4.844,1.26-8.908,4.548-11.153,9.021c-2.244,4.473-2.45,9.697-0.564,14.333c0.865,2.603,0.427,5.463-1.176,7.688
				C400.27,422.652,397.695,423.972,394.952,423.975z"/>
		</g>
		<path style="fill:#E91E63;" d="M425.672,374.478c-4.713,0-8.533-3.821-8.533-8.533v-51.2c-0.015-14.132-11.468-25.585-25.6-25.6
			H118.472c-14.132,0.015-25.585,11.468-25.6,25.6v51.2c0,4.713-3.821,8.533-8.533,8.533s-8.533-3.821-8.533-8.533v-51.2
			c0.028-23.553,19.114-42.639,42.667-42.667h273.067c23.553,0.028,42.639,19.114,42.667,42.667v51.2
			C434.206,370.657,430.385,374.478,425.672,374.478z"/>
		<path style="fill:#607D8B;" d="M331.806,220.878v170.667c-0.028,9.414-7.652,17.039-17.067,17.067H195.272
			c-9.414-0.028-17.039-7.652-17.067-17.067V220.878H331.806z"/>
		<g>
			<path style="fill:#9E9E9E;" d="M306.206,220.878v170.667c-0.028,9.414-7.653,17.039-17.067,17.067h-93.867
				c-9.414-0.028-17.039-7.652-17.067-17.067V220.878H306.206z"/>
			<rect x="178.206" y="340.345" style="fill:#9E9E9E;" width="153.6" height="34.133"/>
		</g>
		<rect x="178.206" y="340.345" style="fill:#CFD8DC;" width="128" height="34.133"/>
		<rect x="289.139" y="459.811" style="fill:#607D8B;" width="25.6" height="42.667"/>
		<path style="fill:#9E9E9E;" d="M289.139,459.811v42.667c-18.833-0.044-34.09-15.3-34.133-34.134
			c-0.012,8.297-3.045,16.305-8.533,22.528c-1.295,1.466-2.724,2.808-4.267,4.011c-6.009,4.94-13.555,7.626-21.333,7.595l-25.6,0
			v-42.667H289.139z"/>
		<circle style="fill:#E91E63;" cx="284.872" cy="293.411" r="12.8"/>
		<g>
			<circle style="fill:#9E9E9E;" cx="84.339" cy="374.478" r="17.067"/>
			<circle style="fill:#9E9E9E;" cx="425.672" cy="374.478" r="17.067"/>
		</g>
		<path style="fill:#E91E63;" d="M391.539,135.545c23.564,0,42.667,19.103,42.667,42.667s-19.103,42.667-42.667,42.667H118.472
			c-23.564,0-42.667-19.103-42.667-42.667s19.103-42.667,42.667-42.667H391.539z"/>
		<path style="fill:#9E9E9E;" d="M391.539,144.078v68.267c0.002,9.053-3.593,17.737-9.995,24.139
			c-6.402,6.402-15.085,9.997-24.139,9.995h-204.8c-9.053,0.002-17.737-3.593-24.139-9.995c-6.402-6.402-9.997-15.085-9.995-24.139
			v-64.427C117.811,76.412,171.388,16.015,242.462,8.142c1.963-0.171,3.925-0.341,5.973-0.427
			c37.303-1.786,73.71,11.781,100.746,37.544C376.217,71.022,391.524,106.732,391.539,144.078z"/>
		<path style="fill:#CFD8DC;" d="M365.939,144.078v68.267c0.002,9.053-3.593,17.737-9.995,24.139
			c-6.402,6.402-15.085,9.997-24.139,9.995h-179.2c-9.053,0.002-17.737-3.593-24.139-9.995c-6.402-6.402-9.997-15.085-9.995-24.139
			v-64.427C117.811,76.412,171.388,16.015,242.462,8.142C312.477,14.912,365.909,73.736,365.939,144.078z"/>
		<path style="fill:#00695C;" d="M348.872,127.011c0.025,19.27-5.906,38.076-16.981,53.845c-3.401,4.902-7.29,9.448-11.605,13.568
			c-36.374,35.271-94.186,35.271-130.56,0c-4.316-4.12-8.204-8.666-11.605-13.568c-23.213-33.145-22.572-77.435,1.591-109.895
			s66.407-45.781,104.818-33.054S348.873,86.546,348.872,127.011z"/>
		<path style="fill:#009688;" d="M323.272,127.011c0.112,18.95-4.959,37.57-14.666,53.845c-2.891,4.839-6.247,9.383-10.023,13.568
			c-13.927,16.759-34.588,26.454-56.378,26.454s-42.452-9.694-56.378-26.454c-3.775-4.185-7.132-8.729-10.023-13.568
			c-9.706-16.276-14.778-34.895-14.666-53.845c0-51.883,36.259-93.867,81.067-93.867S323.272,75.129,323.272,127.011z"/>
		<path style="fill:#00BCD4;" d="M314.739,127.011c0,32.99-26.744,59.733-59.733,59.733s-59.733-26.744-59.733-59.733
			c0.017-29.673,21.829-54.829,51.2-59.051c5.653-0.91,11.414-0.91,17.067,0c13.845,1.949,26.547,8.754,35.84,19.2
			c3.885,4.242,7.107,9.046,9.557,14.251C312.779,109.397,314.763,118.149,314.739,127.011z"/>
		<path style="fill:#F44335;" d="M308.936,101.411l-49.237,32.683c-2.612,1.734-5.966,1.893-8.731,0.413
			c-2.764-1.48-4.492-4.36-4.496-7.495V67.961c5.653-0.91,11.414-0.91,17.067,0l21.333,7.424l14.507,11.776
			C303.264,91.403,306.486,96.207,308.936,101.411z"/>
	</g>
	<g>
		<path d="M285.872,316.745c11.782,0,21.333-9.551,21.333-21.333s-9.551-21.333-21.333-21.333s-21.333,9.551-21.333,21.333
			C264.551,307.188,274.095,316.732,285.872,316.745z M285.872,291.145c2.356,0,4.267,1.91,4.267,4.267s-1.91,4.267-4.267,4.267
			s-4.267-1.91-4.267-4.267C281.609,293.056,283.517,291.148,285.872,291.145z"/>
		<path d="M43.114,421.845c0.958,2.9,3.393,5.066,6.384,5.68c2.991,0.614,6.083-0.417,8.106-2.705
			c2.023-2.287,2.669-5.482,1.694-8.375c-3.657-8.247-0.042-17.904,8.133-21.72c9.93,9.808,25.903,9.805,35.828-0.009
			c8.071,3.916,11.646,13.479,8.122,21.729c-0.975,2.894-0.329,6.088,1.694,8.375c2.023,2.287,5.114,3.319,8.106,2.705
			c2.991-0.614,5.426-2.781,6.384-5.68c4.799-12.22,1.896-26.122-7.392-35.4c-2.823-2.79-6.032-5.16-9.529-7.038
			c0.156-0.97,0.255-1.948,0.296-2.929c-0.033-10.813-6.868-20.435-17.067-24.028v-35.706c0.015-14.132,11.468-25.585,25.6-25.6
			h51.2v102.4c0.033,10.813,6.868,20.435,17.067,24.027v86.906c-0.001,2.263,0.898,4.434,2.499,6.035
			c1.6,1.6,3.771,2.499,6.035,2.499h25.6c13.482-0.037,26.148-6.468,34.133-17.331c7.985,10.863,20.651,17.294,34.133,17.331h25.6
			c2.263,0.001,4.434-0.898,6.035-2.499c1.6-1.6,2.499-3.771,2.499-6.035v-86.906c10.199-3.592,17.033-13.215,17.067-24.028v-102.4
			h51.2c14.132,0.015,25.585,11.468,25.6,25.6v35.706c-10.199,3.592-17.033,13.215-17.067,24.028
			c0.041,0.981,0.14,1.959,0.296,2.929c-3.497,1.878-6.706,4.248-9.529,7.038c-9.288,9.278-12.19,23.18-7.392,35.4
			c0.958,2.9,3.393,5.066,6.384,5.68c2.991,0.614,6.083-0.417,8.106-2.705c2.023-2.287,2.669-5.482,1.694-8.375
			c-3.657-8.247-0.042-17.904,8.133-21.72c9.93,9.808,25.903,9.805,35.828-0.009c8.071,3.916,11.646,13.479,8.122,21.729
			c-0.975,2.894-0.329,6.088,1.694,8.375c2.023,2.287,5.114,3.319,8.106,2.705c2.991-0.614,5.426-2.781,6.384-5.68
			c4.799-12.22,1.896-26.122-7.392-35.4c-2.823-2.79-6.032-5.16-9.529-7.038c0.156-0.97,0.255-1.948,0.296-2.929
			c-0.033-10.813-6.868-20.435-17.067-24.028v-35.706c-0.028-23.553-19.114-42.639-42.667-42.667h-51.2v-17.067h17.067
			c17.053-0.023,32.458-10.187,39.189-25.856c25.708-2.534,45.494-23.834,46.129-49.658c0.635-25.824-18.08-48.071-43.632-51.866
			C391.472,53.677,325.358-2.535,249.006,1.173c-70.605,4.072-128.141,58.16-136.565,128.378
			c-25.688,3.548-44.661,25.752-44.156,51.68s20.325,47.378,46.132,49.924c6.731,15.669,22.136,25.833,39.189,25.856h17.067v17.067
			h-51.2c-23.553,0.028-42.639,19.114-42.667,42.667v35.706c-10.199,3.592-17.033,13.215-17.067,24.028
			c0.041,0.981,0.14,1.959,0.296,2.929c-3.497,1.878-6.706,4.248-9.529,7.038C41.218,395.723,38.315,409.625,43.114,421.845z
			 M426.672,385.011c-4.713,0-8.533-3.82-8.533-8.533s3.821-8.533,8.533-8.533c4.713,0,8.533,3.821,8.533,8.533
			C435.201,381.189,431.383,385.007,426.672,385.011z M324.272,367.945H187.739v-17.067h136.533V367.945z M307.206,419.145v34.133
			h-42.667v-34.133H307.206z M247.472,453.278h-42.667v-34.133h42.667V453.278z M221.872,495.945h-17.067v-25.6h42.667
			C247.457,484.477,236.004,495.929,221.872,495.945z M290.139,495.945c-14.132-0.015-25.585-11.468-25.6-25.6h42.667v25.6H290.139z
			 M315.739,402.078H196.272c-4.711-0.005-8.529-3.822-8.533-8.533v-8.533h136.533v8.533
			C324.268,398.255,320.45,402.073,315.739,402.078z M426.672,180.211c-0.046,15.521-10.569,29.053-25.6,32.922V147.29
			C416.104,151.158,426.626,164.69,426.672,180.211z M85.339,180.211c0.045-15.572,10.632-29.136,25.727-32.961
			c-0.016,0.901-0.127,1.777-0.127,2.682v63.201C95.907,209.264,85.385,195.732,85.339,180.211z M128.006,214.345v-64.413
			c-1.148-69.408,52.514-127.435,121.8-131.708c2.092-0.1,4.178-0.15,6.258-0.15c70.671,0.034,127.942,57.334,127.942,128.004
			v68.267c-0.015,14.132-11.468,25.585-25.6,25.6h-204.8C139.474,239.929,128.021,228.477,128.006,214.345z M324.272,257.011v76.8
			H187.739v-76.8H324.272z M85.339,367.945c4.713,0,8.533,3.821,8.533,8.533s-3.821,8.533-8.533,8.533s-8.533-3.82-8.533-8.533
			C76.81,371.767,80.628,367.949,85.339,367.945z"/>
		<path d="M256.006,231.411c47.926,0.013,89.453-33.209,99.961-79.969s-12.812-94.554-56.135-115.048s-95.065-8.207-124.549,29.576
			s-28.827,90.96,1.581,128.003C196.252,217.746,225.33,231.501,256.006,231.411z M170.672,129.011
			c-0.009-41.507,29.845-77.003,70.739-84.109s80.972,16.238,94.966,55.316s-2.154,82.556-38.263,103.026
			s-81.709,11.994-108.051-20.083C177.536,167.895,170.683,148.76,170.672,129.011z"/>
		<path d="M256.006,197.278c25.101,0.028,48.189-13.737,60.1-35.832s10.721-48.948-3.099-69.903
			c-0.071-0.118-0.074-0.254-0.151-0.369c-0.051-0.076-0.133-0.111-0.186-0.185c-18.138-27.014-52.826-37.466-82.869-24.97
			c-30.043,12.496-47.086,44.465-40.716,76.374C195.455,174.302,223.467,197.276,256.006,197.278z M293.244,93.98l-28.705,19.102
			v-34.5C275.532,80.444,285.613,85.852,293.244,93.98z M247.472,78.582v50.429c-0.001,3.146,1.729,6.036,4.502,7.522
			c2.773,1.486,6.138,1.325,8.756-0.418l41.995-27.948c8.932,19.983,4.17,43.434-11.849,58.35
			c-16.019,14.916-39.75,17.997-59.046,7.664c-19.296-10.332-29.888-31.79-26.354-53.392
			C209.011,99.189,225.889,82.226,247.472,78.582z"/>
	</g>
</g>
<g>
</g>
<g>
</g>
<g>
</g>
<g>
</g>
<g>
</g>
<g>
</g>
<g>
</g>
<g>
</g>
<g>
</g>
<g>
</g>
<g>
</g>
<g>
</g>
<g>
</g>
<g>
</g>
<g>
</g>
</svg>
